# xmcd
#
# Track frame offsets:
#	150
#	12427
#	24347
#	36200
#	49422
#	62985
#	75240
#	88340
#	102337
#	114290
#	126965
#	137900
#	151280
#	165827
#	175042
#	185870
#	199110
#	213582
#	227455
#	241655
#	254884
#	267647
#	280582
#
# Disc length: 3890 seconds
#
# Revision: 3
# Processed by: cddbd v1.5.2PL0 Copyright (c) Steve Scherf et al.
# Submitted via: EasyCDDAExtractor 11.1.0.1
#
DISCID=430f3017
DTITLE=Various Artist - Death Room Blues - Disc 2
DYEAR=2001
DGENRE=Blues
TTITLE0=Roosevelt Sykes - 15c A Day
TTITLE1=Bukka White - Parchman Farm Blues
TTITLE2=Bukka White - Bukka's Jitterbug Blues
TTITLE3=Bukka White - Black Train Blues
TTITLE4=Bukka White - Shake 'Em On Down
TTITLE5='Blind Boy Fuller' Fulton Allen - Bud Rider Blues
TTITLE6=Jay 'Hootie' McShann - Hootie Blues
TTITLE7=Aaron Thibeaux 'T-Bone' Walker - Come Back To Me Baby
TTITLE8=Aaron Thibeaux 'T-Bone' Walker - Too Much Trouble Blues
TTITLE9=Sonny Terry - Early Morning Blues
TTITLE10=Sonny Terry - Harmonica Rag
TTITLE11=Joseph Vernon 'Big Joe' Turner - Watch That Jive
TTITLE12=Joseph Vernon 'Big Joe' Turner - Roch In My Bed
TTITLE13=Blind John Davis - How Long Blues
TTITLE14=Blind John Davis - My Own Boogie
TTITLE15=John Lee 'Sonny Boy' Williamson - War Time Blues
TTITLE16=John Lee 'Sonny Boy' Williamson - Susie-Q
TTITLE17=Muddy Waters - Take A Walk With Me
TTITLE18=Muddy Waters - I Feel Like Going Home
TTITLE19=Peter Chatman (Memphis Slim) - You Didn't Mean Me No Good
TTITLE20=Walter Brown 'Brownie' McGhee - I'm A Black Woman's Man
TTITLE21=Walter Brown 'Brownie' McGhee - Ain't No Tellin'
TTITLE22=Homer Harris - Atomic Bomb Blues
EXTD=n/a
EXTT0=
EXTT1=
EXTT2=
EXTT3=
EXTT4=
EXTT5=
EXTT6=
EXTT7=
EXTT8=
EXTT9=
EXTT10=
EXTT11=
EXTT12=
EXTT13=
EXTT14=
EXTT15=
EXTT16=
EXTT17=
EXTT18=
EXTT19=
EXTT20=
EXTT21=
EXTT22=
PLAYORDER=
